<svg width="42" height="32" viewBox="0 0 42 32" fill="none" xmlns="http://www.w3.org/2000/svg">
<path d="M5 16C5 7.16344 12.1634 0 21 0C29.8366 0 37 7.16344 37 16C37 24.8366 29.8366 32 21 32C12.1634 32 5 24.8366 5 16Z" fill="white"/>
<path d="M26 13.17C25.8126 12.9838 25.5592 12.8792 25.295 12.8792C25.0308 12.8792 24.7774 12.9838 24.59 13.17L21 16.71L17.46 13.17C17.2726 12.9838 17.0192 12.8792 16.755 12.8792C16.4908 12.8792 16.2374 12.9838 16.05 13.17C15.9563 13.263 15.8819 13.3736 15.8311 13.4954C15.7803 13.6173 15.7542 13.748 15.7542 13.88C15.7542 14.012 15.7803 14.1427 15.8311 14.2646C15.8819 14.3864 15.9563 14.497 16.05 14.59L20.29 18.83C20.383 18.9237 20.4936 18.9981 20.6154 19.0489C20.7373 19.0997 20.868 19.1258 21 19.1258C21.132 19.1258 21.2627 19.0997 21.3846 19.0489C21.5064 18.9981 21.617 18.9237 21.71 18.83L26 14.59C26.0937 14.497 26.1681 14.3864 26.2189 14.2646C26.2697 14.1427 26.2958 14.012 26.2958 13.88C26.2958 13.748 26.2697 13.6173 26.2189 13.4954C26.1681 13.3736 26.0937 13.263 26 13.17Z" fill="#7D7D7D"/>
</svg>
