<svg width="24" height="25" viewBox="0 0 24 25" fill="none" xmlns="http://www.w3.org/2000/svg">
<rect y="0.594177" width="24" height="24" rx="12" fill="#EEEEEE"/>
<path d="M10.5 17.0942C10.6989 17.0942 10.8897 17.0152 11.0303 16.8745C11.171 16.7339 11.25 16.5431 11.25 16.3442V11.8442C11.25 11.6453 11.171 11.4545 11.0303 11.3138C10.8897 11.1732 10.6989 11.0942 10.5 11.0942C10.3011 11.0942 10.1103 11.1732 9.96967 11.3138C9.82902 11.4545 9.75 11.6453 9.75 11.8442V16.3442C9.75 16.5431 9.82902 16.7339 9.96967 16.8745C10.1103 17.0152 10.3011 17.0942 10.5 17.0942ZM18 8.09418H15V7.34418C15 6.74744 14.7629 6.17514 14.341 5.75319C13.919 5.33123 13.3467 5.09418 12.75 5.09418H11.25C10.6533 5.09418 10.081 5.33123 9.65901 5.75319C9.23705 6.17514 9 6.74744 9 7.34418V8.09418H6C5.80109 8.09418 5.61032 8.1732 5.46967 8.31385C5.32902 8.4545 5.25 8.64526 5.25 8.84418C5.25 9.04309 5.32902 9.23385 5.46967 9.37451C5.61032 9.51516 5.80109 9.59418 6 9.59418H6.75V17.8442C6.75 18.4409 6.98705 19.0132 7.40901 19.4352C7.83097 19.8571 8.40326 20.0942 9 20.0942H15C15.5967 20.0942 16.169 19.8571 16.591 19.4352C17.0129 19.0132 17.25 18.4409 17.25 17.8442V9.59418H18C18.1989 9.59418 18.3897 9.51516 18.5303 9.37451C18.671 9.23385 18.75 9.04309 18.75 8.84418C18.75 8.64526 18.671 8.4545 18.5303 8.31385C18.3897 8.1732 18.1989 8.09418 18 8.09418ZM10.5 7.34418C10.5 7.14526 10.579 6.9545 10.7197 6.81385C10.8603 6.6732 11.0511 6.59418 11.25 6.59418H12.75C12.9489 6.59418 13.1397 6.6732 13.2803 6.81385C13.421 6.9545 13.5 7.14526 13.5 7.34418V8.09418H10.5V7.34418ZM15.75 17.8442C15.75 18.0431 15.671 18.2339 15.5303 18.3745C15.3897 18.5152 15.1989 18.5942 15 18.5942H9C8.80109 18.5942 8.61032 18.5152 8.46967 18.3745C8.32902 18.2339 8.25 18.0431 8.25 17.8442V9.59418H15.75V17.8442ZM13.5 17.0942C13.6989 17.0942 13.8897 17.0152 14.0303 16.8745C14.171 16.7339 14.25 16.5431 14.25 16.3442V11.8442C14.25 11.6453 14.171 11.4545 14.0303 11.3138C13.8897 11.1732 13.6989 11.0942 13.5 11.0942C13.3011 11.0942 13.1103 11.1732 12.9697 11.3138C12.829 11.4545 12.75 11.6453 12.75 11.8442V16.3442C12.75 16.5431 12.829 16.7339 12.9697 16.8745C13.1103 17.0152 13.3011 17.0942 13.5 17.0942Z" fill="#535353"/>
</svg>
