<svg width="24" height="25" viewBox="0 0 24 25" fill="none" xmlns="http://www.w3.org/2000/svg">
<rect y="0.594177" width="24" height="24" rx="12" fill="#EEEEEE"/>
<path d="M17.25 11.8442H12.75V7.34418C12.75 7.14526 12.671 6.9545 12.5303 6.81385C12.3897 6.6732 12.1989 6.59418 12 6.59418C11.8011 6.59418 11.6103 6.6732 11.4697 6.81385C11.329 6.9545 11.25 7.14526 11.25 7.34418V11.8442H6.75C6.55109 11.8442 6.36032 11.9232 6.21967 12.0638C6.07902 12.2045 6 12.3953 6 12.5942C6 12.7931 6.07902 12.9839 6.21967 13.1245C6.36032 13.2652 6.55109 13.3442 6.75 13.3442H11.25V17.8442C11.25 18.0431 11.329 18.2339 11.4697 18.3745C11.6103 18.5152 11.8011 18.5942 12 18.5942C12.1989 18.5942 12.3897 18.5152 12.5303 18.3745C12.671 18.2339 12.75 18.0431 12.75 17.8442V13.3442H17.25C17.4489 13.3442 17.6397 13.2652 17.7803 13.1245C17.921 12.9839 18 12.7931 18 12.5942C18 12.3953 17.921 12.2045 17.7803 12.0638C17.6397 11.9232 17.4489 11.8442 17.25 11.8442Z" fill="#3E3E3E"/>
</svg>
